<?xml version="1.0" encoding="iso-8859-1"?>
<!-- Uploaded to: SVG Repo, www.svgrepo.com, Generator: SVG Repo Mixer Tools -->
<svg height="800px" width="800px" version="1.1" id="Capa_1" xmlns="http://www.w3.org/2000/svg" xmlns:xlink="http://www.w3.org/1999/xlink" 
	 viewBox="0 0 360 360" xml:space="preserve">
<g id="XMLID_1225_">
	<path id="XMLID_1226_" style="fill:#FF9811;" d="M0,85v45c27.614,0,50,22.386,50,50s-22.386,50-50,50v45h80V85H0z"/>
	<polygon id="XMLID_1227_" style="fill:#FF5023;" points="140,225 140,195 180,195 180,164.999 140,164.999 140,134.999 
		180,134.999 180,85 110,85 110,275 180,275 180,225 	"/>
	<path id="XMLID_1228_" style="fill:#BF3C1A;" d="M360,130V85H180v49.999h100v30H180V195h100v30H180v50h180v-45
		c-27.614,0-50-22.386-50-50S332.386,130,360,130z"/>
	<polygon id="XMLID_1229_" style="fill:#FFDA44;" points="80,85 80,275 80,275 110,275 110,275 110,85 	"/>
	<polygon id="XMLID_1230_" style="fill:#FFFFFF;" points="140,164.999 180,164.999 280,164.999 280,134.999 180,134.999 
		140,134.999 	"/>
	<polygon id="XMLID_1231_" style="fill:#FFFFFF;" points="140,225 180,225 280,225 280,195 180,195 140,195 	"/>
</g>
</svg>